<svg width="171" height="28" viewBox="0 0 171 28" fill="none" xmlns="http://www.w3.org/2000/svg">
<path d="M14.8587 15.9043C14.8587 16.9991 14.4995 17.8404 13.7931 18.4282C13.0747 19.016 12.1288 19.3848 10.9315 19.5461L14.308 23.3493H10.2012L7.23184 19.6153H5.19642L4.58579 23.3493H1.3291L3.0652 12.8271H10.8477C12.0929 12.8271 13.0628 13.0807 13.7811 13.5763C14.4995 14.0718 14.8587 14.8555 14.8587 15.9158V15.9043ZM5.90283 15.3165L5.57956 17.2757H9.94974C10.4406 17.2757 10.8358 17.1835 11.1471 16.9991C11.4584 16.8147 11.602 16.5612 11.602 16.227C11.602 15.9389 11.4823 15.7084 11.2428 15.5585C11.0034 15.4087 10.6801 15.328 10.273 15.328H5.90283V15.3165Z" fill="white"/>
<path d="M15.8643 23.3493L17.6004 12.8271H20.8451L19.109 23.3493H15.8643Z" fill="white"/>
<path d="M33.0101 12.8271H36.3266L30.0168 23.3493H25.1318L22.354 12.8271H25.7544L27.8736 21.8165L33.0101 12.8271Z" fill="white"/>
<path d="M48.5509 15.2589H40.6726L40.4212 16.8494H46.5394L46.1683 19.1313H40.0261L39.7507 20.9061H47.9163L47.5093 23.3378H36.0869L37.823 12.8157H48.946L48.539 15.2474L48.5509 15.2589Z" fill="white"/>
<path d="M63.0982 15.9043C63.0982 16.9991 62.739 17.8404 62.0326 18.4282C61.3142 19.016 60.3683 19.3848 59.171 19.5461L62.5474 23.3493H58.4407L55.4713 19.6153H53.4359L52.8253 23.3493H49.5806L51.3167 12.8271H59.0992C60.3444 12.8271 61.3142 13.0807 62.0326 13.5763C62.751 14.0718 63.1102 14.8555 63.1102 15.9158L63.0982 15.9043ZM54.1423 15.3165L53.819 17.2757H58.1892C58.6801 17.2757 59.0752 17.1835 59.3865 16.9991C59.6978 16.8147 59.8415 16.5612 59.8415 16.227C59.8415 15.9389 59.7218 15.7084 59.4823 15.5585C59.2429 15.4087 58.9196 15.328 58.5125 15.328H54.1423V15.3165Z" fill="white"/>
<path d="M66.5225 19.6383C66.5465 20.0648 66.7979 20.4451 67.2768 20.7678C67.7557 21.0905 68.534 21.2518 69.5757 21.2518C70.3659 21.2518 71.0603 21.1827 71.671 21.0444C72.2696 20.9061 72.5809 20.6986 72.5809 20.4105C72.5809 20.0878 72.1978 19.8458 71.4195 19.6729L67.3606 18.7509C65.5048 18.3245 64.5829 17.4832 64.5829 16.227C64.5829 15.4203 64.8822 14.7288 65.4689 14.1756C66.0675 13.6224 66.7979 13.2305 67.6839 13C68.5579 12.7695 69.5397 12.6543 70.6293 12.6543C72.2936 12.6543 73.6226 12.9655 74.6163 13.5763C75.6101 14.1871 76.0771 15.063 76.0172 16.1809L72.9281 16.2961C72.8802 15.9389 72.6288 15.6162 72.1738 15.3396C71.7188 15.063 71.0364 14.9247 70.1144 14.9247C69.4799 14.9247 68.9531 14.9938 68.534 15.1321C68.1149 15.2704 67.8994 15.4548 67.8994 15.6969C67.8994 16.008 68.2826 16.2385 69.0369 16.3999L72.7126 17.2066C73.7782 17.4371 74.5684 17.7483 75.1072 18.1401C75.6341 18.532 75.9094 19.0736 75.9094 19.7651C75.9094 20.6179 75.6221 21.3325 75.0354 21.8972C74.4487 22.4619 73.6705 22.8768 72.6887 23.1419C71.7069 23.3954 70.5455 23.5222 69.2165 23.5222C67.205 23.5222 65.7203 23.1995 64.7505 22.5656C63.7926 21.9203 63.3616 20.9752 63.4574 19.7075L66.5345 19.6268L66.5225 19.6383Z" fill="white"/>
<path d="M90.0378 12.8271L89.6188 15.3857H85.0091L83.6921 23.3493H80.4474L81.7644 15.3857H77.1548L77.5738 12.8271H90.0378Z" fill="white"/>
<path d="M89.978 18.8662C89.978 16.9531 90.7204 15.4318 92.1931 14.3139C93.6657 13.196 95.6652 12.6428 98.2035 12.6428C100.239 12.6428 101.819 13.0577 102.933 13.876C104.046 14.6942 104.609 15.8352 104.609 17.2989C104.609 19.212 103.867 20.7332 102.394 21.8512C100.921 22.9691 98.9219 23.5338 96.4076 23.5338C94.3722 23.5338 92.7917 23.1189 91.6662 22.3006C90.5408 21.4824 89.99 20.3414 89.99 18.8778L89.978 18.8662ZM93.2227 18.4744C93.2227 19.2465 93.534 19.8574 94.1566 20.3068C94.7792 20.7563 95.6653 20.9868 96.8147 20.9868C98.2155 20.9868 99.329 20.6871 100.131 20.0763C100.933 19.4655 101.341 18.6703 101.341 17.6907C101.341 16.9185 101.029 16.3077 100.407 15.8582C99.784 15.4088 98.91 15.1783 97.7606 15.1783C96.3597 15.1783 95.2462 15.4779 94.432 16.0887C93.6179 16.6996 93.2108 17.4948 93.2108 18.4744H93.2227Z" fill="white"/>
<path d="M119.24 15.9043C119.24 16.9991 118.881 17.8404 118.175 18.4282C117.456 19.016 116.51 19.3848 115.313 19.5461L118.69 23.3493H114.583L111.613 19.6153H109.578L108.967 23.3493H105.723L107.459 12.8271H115.241C116.486 12.8271 117.456 13.0807 118.175 13.5763C118.893 14.0718 119.252 14.8555 119.252 15.9158L119.24 15.9043ZM110.284 15.3165L109.961 17.2757H114.331C114.822 17.2757 115.217 17.1835 115.529 16.9991C115.84 16.8147 115.984 16.5612 115.984 16.227C115.984 15.9389 115.864 15.7084 115.624 15.5585C115.385 15.4087 115.062 15.328 114.655 15.328H110.284V15.3165Z" fill="white"/>
<path d="M120.234 23.3493L121.97 12.8271H125.215L123.479 23.3493H120.234Z" fill="white"/>
<path d="M138.577 15.2589H130.698L130.447 16.8494H136.565L136.194 19.1313H130.052L129.777 20.9061H137.942L137.535 23.3378H126.113L127.849 12.8157H138.972L138.565 15.2474L138.577 15.2589Z" fill="white"/>
<path d="M142.145 19.6383C142.169 20.0648 142.42 20.4451 142.899 20.7678C143.378 21.0905 144.157 21.2518 145.198 21.2518C145.988 21.2518 146.683 21.1827 147.294 21.0444C147.892 20.9061 148.203 20.6986 148.203 20.4105C148.203 20.0878 147.82 19.8458 147.042 19.6729L142.983 18.7509C141.127 18.3245 140.205 17.4832 140.205 16.227C140.205 15.4203 140.505 14.7288 141.091 14.1756C141.69 13.6224 142.42 13.2305 143.306 13C144.181 12.7695 145.162 12.6543 146.252 12.6543C147.916 12.6543 149.245 12.9655 150.239 13.5763C151.233 14.1871 151.7 15.063 151.64 16.1809L148.551 16.2961C148.503 15.9389 148.251 15.6162 147.796 15.3396C147.341 15.063 146.659 14.9247 145.737 14.9247C145.102 14.9247 144.576 14.9938 144.157 15.1321C143.737 15.2704 143.522 15.4548 143.522 15.6969C143.522 16.008 143.905 16.2385 144.659 16.3999L148.335 17.2066C149.401 17.4371 150.191 17.7483 150.73 18.1401C151.257 18.532 151.532 19.0736 151.532 19.7651C151.532 20.6179 151.245 21.3325 150.658 21.8972C150.071 22.4619 149.293 22.8768 148.311 23.1419C147.329 23.3954 146.168 23.5222 144.839 23.5222C142.828 23.5222 141.343 23.1995 140.373 22.5656C139.415 21.9203 138.984 20.9752 139.08 19.7075L142.157 19.6268L142.145 19.6383Z" fill="white"/>
<path d="M154.214 17.0127C154.214 17.0127 160.306 14.4762 163.061 10.4042C135.931 7.20285 119.905 8.45244 101.537 10.6469C112.773 5.90167 152.349 2.03028 168.955 8.55004C165.034 15.7459 154.214 17.0127 154.214 17.0127Z" fill="#E4C65A"/>
<path d="M141.433 5.49389L133.594 1.20002C133.594 1.20002 118.494 2.28355 114.363 4.58767C123.86 3.40445 133.039 3.11405 133.039 3.11405L137.499 5.78467L141.433 5.49389Z" fill="#E4C65A"/>
</svg>
