<svg width="16" height="19" viewBox="0 0 16 19" fill="none" xmlns="http://www.w3.org/2000/svg">
<path d="M4.38718 14.1952C4.38718 14.1952 6.92527 17.3946 10.213 18.5035C10.213 18.5035 12.4839 19.4697 14.465 17.8345C14.465 17.8345 15.734 17.2277 14.9434 15.7392L12.8634 12.7611C12.8634 12.7611 12.3796 11.9436 11.2787 12.3769L9.48867 13.5924C9.48867 13.5924 5.72066 10.6659 4.74993 6.59644L6.12799 5.64586C6.12799 5.64586 7.48163 4.82724 6.55689 3.4505L4.47702 0.472415C4.47702 0.472415 3.69583 -0.33174 2.65009 0.293633C2.65009 0.293633 0.115107 1.73524 0.243068 4.96632C0.243068 4.96632 -0.293535 8.23357 4.38714 14.1952L4.38718 14.1952Z" fill="#FFCF27"/>
</svg>
