<svg width="1816" height="132" viewBox="0 0 1816 132" fill="none" xmlns="http://www.w3.org/2000/svg">
<path d="M163.933 39.8518C163.933 52.9901 159.596 63.0858 151.065 70.139C142.39 77.1922 130.967 81.6177 116.509 83.5539L157.282 129.192H107.689L71.831 84.3837H47.2511L39.8771 129.192H0.549316L21.5145 2.92627H115.496C130.534 2.92627 142.245 5.96882 150.92 11.9156C159.596 17.8624 163.933 27.2667 163.933 39.9901V39.8518ZM55.7818 32.7986L51.8779 56.3092H104.652C110.58 56.3092 115.352 55.2029 119.111 52.9901C122.87 50.7773 124.605 47.7348 124.605 43.7241C124.605 40.2667 123.16 37.5007 120.268 35.7029C117.376 33.905 113.472 32.9369 108.556 32.9369H55.7818V32.7986Z" fill="white" fill-opacity="0.2"/>
<path d="M176.079 129.192L197.044 2.92627H236.227L215.262 129.192H176.079Z" fill="white" fill-opacity="0.2"/>
<path d="M383.128 2.92627H423.179L346.981 129.192H287.989L254.445 2.92627H295.508L321.1 110.799L383.128 2.92627Z" fill="white" fill-opacity="0.2"/>
<path d="M570.803 32.1072H475.664L472.628 51.1923H546.512L542.03 78.5753H467.856L464.531 99.8732H563.14L558.224 129.054H420.287L441.252 2.78809H575.574L570.658 31.9689L570.803 32.1072Z" fill="white" fill-opacity="0.2"/>
<path d="M746.477 39.8518C746.477 52.9901 742.139 63.0858 733.608 70.139C724.933 77.1922 713.511 81.6177 699.052 83.5539L739.826 129.192H690.232L654.374 84.3837H629.795L622.421 129.192H583.237L604.203 2.92627H698.184C713.222 2.92627 724.933 5.96882 733.608 11.9156C742.284 17.8624 746.621 27.2667 746.621 39.9901L746.477 39.8518ZM638.325 32.7986L634.421 56.3092H687.196C693.124 56.3092 697.895 55.2029 701.655 52.9901C705.414 50.7773 707.149 47.7348 707.149 43.7241C707.149 40.2667 705.703 37.5007 702.811 35.7029C699.919 33.905 696.016 32.9369 691.1 32.9369H638.325V32.7986Z" fill="white" fill-opacity="0.2"/>
<path d="M787.828 84.6601C788.118 89.7771 791.154 94.3409 796.937 98.2133C802.721 102.086 812.119 104.022 824.698 104.022C834.241 104.022 842.627 103.192 850.001 101.532C857.23 99.8728 860.99 97.3835 860.99 93.926C860.99 90.0537 856.363 87.1494 846.965 85.075L797.95 74.0111C775.538 68.8941 764.405 58.7984 764.405 43.7239C764.405 34.0431 768.02 25.7452 775.105 19.1069C782.334 12.4686 791.154 7.76646 801.853 5.0005C812.408 2.23454 824.265 0.851562 837.422 0.851562C857.52 0.851562 873.569 4.58561 885.57 11.9154C897.57 19.2452 903.209 29.7558 902.486 43.1707L865.183 44.5537C864.604 40.2665 861.568 36.3941 856.074 33.075C850.579 29.7558 842.338 28.0962 831.205 28.0962C823.542 28.0962 817.18 28.926 812.119 30.5856C807.059 32.2452 804.456 34.4579 804.456 37.3622C804.456 41.0962 809.083 43.8622 818.192 45.7984L862.58 55.4792C875.448 58.2452 884.991 61.9792 891.498 66.6814C897.86 71.3835 901.185 77.8835 901.185 86.1813C901.185 96.4154 897.715 104.99 890.63 111.766C883.545 118.543 874.147 123.522 862.291 126.703C850.435 129.745 836.41 131.266 820.361 131.266C796.07 131.266 778.141 127.394 766.429 119.788C754.862 112.043 749.657 100.703 750.814 85.4899L787.973 84.5218L787.828 84.6601Z" fill="white" fill-opacity="0.2"/>
<path d="M1071.8 2.92627L1066.74 33.6284H1011.07L995.167 129.192H955.984L971.889 33.6284H916.223L921.283 2.92627H1071.8Z" fill="white" fill-opacity="0.2"/>
<path d="M1071.08 75.3942C1071.08 52.4368 1080.04 34.1815 1097.82 20.7666C1115.61 7.35167 1139.75 0.713379 1170.41 0.713379C1194.99 0.713379 1214.07 5.6921 1227.52 15.5112C1240.97 25.3304 1247.76 39.0219 1247.76 56.5857C1247.76 79.5432 1238.8 97.7985 1221.01 111.213C1203.23 124.628 1179.08 131.405 1148.72 131.405C1124.14 131.405 1105.05 126.426 1091.46 116.607C1077.87 106.788 1071.22 93.0964 1071.22 75.5325L1071.08 75.3942ZM1110.26 70.6921C1110.26 79.9581 1114.02 87.2879 1121.54 92.6815C1129.06 98.0751 1139.75 100.841 1153.64 100.841C1170.55 100.841 1184 97.2453 1193.69 89.9155C1203.37 82.5857 1208.29 73.0432 1208.29 61.2879C1208.29 52.0219 1204.53 44.6921 1197.01 39.2985C1189.49 33.9049 1178.94 31.1389 1165.06 31.1389C1148.14 31.1389 1134.69 34.7347 1124.86 42.0644C1115.03 49.3942 1110.11 58.9368 1110.11 70.6921H1110.26Z" fill="white" fill-opacity="0.2"/>
<path d="M1424.45 39.8518C1424.45 52.9901 1420.11 63.0858 1411.58 70.139C1402.9 77.1922 1391.48 81.6177 1377.02 83.5539L1417.8 129.192H1368.2L1332.35 84.3837H1307.77L1300.39 129.192H1261.21L1282.17 2.92627H1376.16C1391.19 2.92627 1402.9 5.96882 1411.58 11.9156C1420.25 17.8624 1424.59 27.2667 1424.59 39.9901L1424.45 39.8518ZM1316.3 32.7986L1312.39 56.3092H1365.17C1371.09 56.3092 1375.87 55.2029 1379.63 52.9901C1383.38 50.7773 1385.12 47.7348 1385.12 43.7241C1385.12 40.2667 1383.67 37.5007 1380.78 35.7029C1377.89 33.905 1373.99 32.9369 1369.07 32.9369H1316.3V32.7986Z" fill="white" fill-opacity="0.2"/>
<path d="M1436.45 129.192L1457.41 2.92627H1496.6L1475.63 129.192H1436.45Z" fill="white" fill-opacity="0.2"/>
<path d="M1657.96 32.1072H1562.82L1559.78 51.1923H1633.67L1629.18 78.5753H1555.01L1551.69 99.8732H1650.29L1645.38 129.054H1507.44L1528.41 2.78809H1662.73L1657.81 31.9689L1657.96 32.1072Z" fill="white" fill-opacity="0.2"/>
<path d="M1701.04 84.6601C1701.33 89.7771 1704.37 94.3409 1710.15 98.2133C1715.94 102.086 1725.33 104.022 1737.91 104.022C1747.46 104.022 1755.84 103.192 1763.22 101.532C1770.45 99.8728 1774.21 97.3835 1774.21 93.926C1774.21 90.0537 1769.58 87.1494 1760.18 85.075L1711.17 74.0111C1688.75 68.8941 1677.62 58.7984 1677.62 43.7239C1677.62 34.0431 1681.24 25.7452 1688.32 19.1069C1695.55 12.4686 1704.37 7.76646 1715.07 5.0005C1725.62 2.23454 1737.48 0.851562 1750.64 0.851562C1770.74 0.851562 1786.78 4.58561 1798.79 11.9154C1810.79 19.2452 1816.42 29.7558 1815.7 43.1707L1778.4 44.5537C1777.82 40.2665 1774.78 36.3941 1769.29 33.075C1763.79 29.7558 1755.55 28.0962 1744.42 28.0962C1736.76 28.0962 1730.4 28.926 1725.33 30.5856C1720.27 32.2452 1717.67 34.4579 1717.67 37.3622C1717.67 41.0962 1722.3 43.8622 1731.41 45.7984L1775.8 55.4792C1788.66 58.2452 1798.21 61.9792 1804.71 66.6814C1811.08 71.3835 1814.4 77.8835 1814.4 86.1813C1814.4 96.4154 1810.93 104.99 1803.85 111.766C1796.76 118.543 1787.36 123.522 1775.51 126.703C1763.65 129.745 1749.63 131.266 1733.58 131.266C1709.29 131.266 1691.36 127.394 1679.64 119.788C1668.08 112.043 1662.87 100.703 1664.03 85.4899L1701.19 84.5218L1701.04 84.6601Z" fill="white" fill-opacity="0.2"/>
</svg>
