<svg width="24" height="24" viewBox="0 0 24 24" fill="none" xmlns="http://www.w3.org/2000/svg">
<path opacity="0.5" d="M12 21.6C17.28 21.6 21.6 17.28 21.6 12C21.6 6.72 17.28 2.4 12 2.4C6.72 2.4 2.4 6.72 2.4 12C2.4 17.28 6.72 21.6 12 21.6ZM12 0C18.6 0 24 5.4 24 12C24 18.6 18.6 24 12 24C5.4 24 0 18.6 0 12C0 5.4 5.4 0 12 0Z" fill="white"/>
<path d="M14.42 13.276H10.78V14.004H14.966V15.236H10.78V17H8.666V15.236H7.378V14.004H8.666V13.276H7.378V11.722H8.666V7.368H14.42C15.6053 7.368 16.534 7.62 17.206 8.124C17.8873 8.61867 18.228 9.36533 18.228 10.364C18.228 12.3053 16.9587 13.276 14.42 13.276ZM10.78 9.104V11.722H14.308C14.8867 11.722 15.3347 11.6007 15.652 11.358C15.9693 11.106 16.128 10.7747 16.128 10.364C16.128 9.96267 15.9693 9.65467 15.652 9.44C15.344 9.216 14.896 9.104 14.308 9.104H10.78Z" fill="white" fill-opacity="0.5"/>
</svg>
