<svg width="20" height="17" viewBox="0 0 20 17" fill="none" xmlns="http://www.w3.org/2000/svg">
<path d="M19.7725 0.84484C19.7039 0.64282 19.6221 0.586254 19.4954 0.537769C19.2184 0.430025 18.7486 0.591642 18.7486 0.591642C18.7486 0.591642 2.09989 6.69804 1.14989 7.37413C0.944061 7.51959 0.87545 7.60309 0.843784 7.70275C0.680172 8.18491 1.19212 8.3977 1.19212 8.3977L5.48295 9.82531C5.48295 9.82531 5.64392 9.84955 5.69934 9.81184C6.67573 9.18154 15.5213 3.48188 16.0306 3.29063C16.1124 3.26639 16.1705 3.29333 16.1546 3.34989C15.9514 4.08255 8.26962 11.0509 8.26962 11.0509C8.26962 11.0509 8.24059 11.0886 8.22212 11.1317L8.21156 11.1263L7.81045 15.4711C7.81045 15.4711 7.64156 16.8017 8.94781 15.4711C9.86878 14.531 10.7581 13.7472 11.2041 13.3647C12.6792 14.4044 14.2678 15.5546 14.9513 16.1553C15.2943 16.457 15.5846 16.5054 15.8195 16.4974C16.4686 16.4731 16.6507 15.7432 16.6507 15.7432C16.6507 15.7432 19.6855 3.27986 19.7857 1.60982C19.7963 1.44551 19.8095 1.34316 19.8095 1.23003C19.8095 1.0738 19.7963 0.917567 19.7725 0.842147V0.84484Z" fill="white"/>
</svg>
