<svg width="19" height="17" viewBox="0 0 19 17" fill="none" xmlns="http://www.w3.org/2000/svg">
<g clip-path="url(#clip0_389_751)">
<path d="M18.963 0.390128C18.8944 0.188108 18.8125 0.131542 18.6859 0.0830575C18.4088 -0.0246866 17.9391 0.13693 17.9391 0.13693C17.9391 0.13693 1.29032 6.24333 0.340324 6.91942C0.134491 7.06488 0.0658799 7.14838 0.0342132 7.24804C-0.129398 7.7302 0.382547 7.94299 0.382547 7.94299L4.67338 9.3706C4.67338 9.3706 4.83435 9.39484 4.88977 9.35713C5.86616 8.72683 14.7117 3.02717 15.221 2.83592C15.3028 2.81168 15.3609 2.83861 15.345 2.89518C15.1419 3.62784 7.46005 10.5962 7.46005 10.5962C7.46005 10.5962 7.43102 10.6339 7.41255 10.677L7.40199 10.6716L7.00088 15.0164C7.00088 15.0164 6.83199 16.347 8.13824 15.0164C9.05921 14.0763 9.94852 13.2925 10.3945 12.91C11.8696 13.9497 13.4582 15.0999 14.1417 15.7006C14.4848 16.0022 14.775 16.0507 15.0099 16.0427C15.6591 16.0184 15.8412 15.2884 15.8412 15.2884C15.8412 15.2884 18.8759 2.82515 18.9762 1.15511C18.9867 0.990802 18.9999 0.888445 18.9999 0.775313C18.9999 0.619084 18.9867 0.462856 18.963 0.387435V0.390128Z" fill="#FFCF27"/>
</g>
<defs>
<clipPath id="clip0_389_751">
<rect width="19" height="16" fill="white" transform="translate(0 0.0452881)"/>
</clipPath>
</defs>
</svg>
