<svg width="19" height="17" viewBox="0 0 19 17" fill="none" xmlns="http://www.w3.org/2000/svg">
<g clip-path="url(#clip0_448_3358)">
<path d="M18.963 0.84484C18.8944 0.64282 18.8125 0.586254 18.6859 0.537769C18.4088 0.430025 17.9391 0.591642 17.9391 0.591642C17.9391 0.591642 1.29032 6.69804 0.340324 7.37413C0.134491 7.51959 0.0658799 7.60309 0.0342132 7.70275C-0.129398 8.18491 0.382547 8.3977 0.382547 8.3977L4.67338 9.82531C4.67338 9.82531 4.83435 9.84955 4.88977 9.81184C5.86616 9.18154 14.7117 3.48188 15.221 3.29063C15.3028 3.26639 15.3609 3.29333 15.345 3.34989C15.1419 4.08255 7.46005 11.0509 7.46005 11.0509C7.46005 11.0509 7.43102 11.0886 7.41255 11.1317L7.40199 11.1263L7.00088 15.4711C7.00088 15.4711 6.83199 16.8017 8.13824 15.4711C9.05921 14.531 9.94852 13.7472 10.3945 13.3647C11.8696 14.4044 13.4582 15.5546 14.1417 16.1553C14.4848 16.457 14.775 16.5054 15.0099 16.4974C15.6591 16.4731 15.8412 15.7432 15.8412 15.7432C15.8412 15.7432 18.8759 3.27986 18.9762 1.60982C18.9867 1.44551 18.9999 1.34316 18.9999 1.23003C18.9999 1.0738 18.9867 0.917567 18.963 0.842147V0.84484Z" fill="black"/>
</g>
<defs>
<clipPath id="clip0_448_3358">
<rect width="19" height="16" fill="white" transform="translate(0 0.5)"/>
</clipPath>
</defs>
</svg>
