<svg width="21" height="21" viewBox="0 0 21 21" fill="none" xmlns="http://www.w3.org/2000/svg">
<path fill-rule="evenodd" clip-rule="evenodd" d="M17.8956 3.37319C16.0165 1.4918 13.5142 0.45459 10.8514 0.45459C5.36306 0.45459 0.895617 4.91971 0.893291 10.4081C0.893291 12.1616 1.35143 13.8755 2.22352 15.3848L0.80957 20.5453L6.08864 19.1616C7.54213 19.9546 9.18166 20.3732 10.8468 20.3732H10.8514C16.3398 20.3732 20.8072 15.9081 20.8096 10.4174C20.8096 7.75692 19.7747 5.25692 17.8956 3.37552V3.37319ZM10.8514 18.6895H10.8491C9.36306 18.6895 7.90724 18.2895 6.63748 17.536L6.33515 17.3569L3.20259 18.1778L4.0398 15.1244L3.84213 14.8104C3.01422 13.4941 2.57701 11.9709 2.57701 10.4081C2.57701 5.84529 6.29097 2.13366 10.8584 2.13366C13.07 2.13366 15.1468 2.99645 16.7096 4.55924C18.2724 6.12436 19.1328 8.2011 19.1305 10.4127C19.1305 14.9755 15.4165 18.6871 10.8538 18.6871L10.8514 18.6895ZM15.391 12.4918C15.1421 12.3662 13.9189 11.7662 13.691 11.6825C13.4631 11.5988 13.2979 11.5569 13.1305 11.8081C12.9654 12.0569 12.4886 12.6174 12.3421 12.7825C12.1979 12.9476 12.0514 12.9685 11.8026 12.8453C11.5538 12.7197 10.7514 12.4592 9.80259 11.6104C9.06306 10.9499 8.56306 10.136 8.41887 9.88715C8.27469 9.63831 8.40259 9.50343 8.52817 9.38017C8.6398 9.26854 8.77701 9.08947 8.90027 8.94529C9.02352 8.8011 9.06538 8.69645 9.14911 8.53133C9.23283 8.36622 9.19097 8.21971 9.12818 8.09645C9.06538 7.97087 8.56771 6.74761 8.36073 6.24994C8.15841 5.76389 7.95376 5.83133 7.80027 5.82203C7.65608 5.81505 7.48864 5.81273 7.32352 5.81273C7.15841 5.81273 6.88864 5.87552 6.66073 6.12436C6.43283 6.37319 5.79097 6.97552 5.79097 8.19878C5.79097 9.42203 6.68166 10.6058 6.80725 10.7709C6.9305 10.936 8.56073 13.4499 11.0584 14.5267C11.6514 14.7825 12.1165 14.936 12.477 15.0499C13.0724 15.2383 13.6165 15.2127 14.0445 15.1476C14.5235 15.0755 15.5165 14.5453 15.7235 13.9639C15.9305 13.3825 15.9305 12.8848 15.8677 12.7802C15.8049 12.6755 15.6398 12.6151 15.391 12.4895V12.4918Z" fill="white"/>
</svg>
