<svg width="20" height="21" viewBox="0 0 20 21" fill="none" xmlns="http://www.w3.org/2000/svg">
<g clip-path="url(#clip0_389_747)">
<path fill-rule="evenodd" clip-rule="evenodd" d="M17.086 2.9186C15.207 1.03721 12.7047 0 10.0419 0C4.55349 0 0.0860465 4.46512 0.0837209 9.95349C0.0837209 11.707 0.54186 13.4209 1.41395 14.9302L0 20.0907L5.27907 18.707C6.73256 19.5 8.37209 19.9186 10.0372 19.9186H10.0419C15.5302 19.9186 19.9977 15.4535 20 9.96279C20 7.30233 18.9651 4.80233 17.086 2.92093V2.9186ZM10.0419 18.2349H10.0395C8.55349 18.2349 7.09767 17.8349 5.82791 17.0814L5.52558 16.9023L2.39302 17.7233L3.23023 14.6698L3.03256 14.3558C2.20465 13.0395 1.76744 11.5163 1.76744 9.95349C1.76744 5.3907 5.4814 1.67907 10.0488 1.67907C12.2605 1.67907 14.3372 2.54186 15.9 4.10465C17.4628 5.66977 18.3233 7.74651 18.3209 9.95814C18.3209 14.5209 14.607 18.2326 10.0442 18.2326L10.0419 18.2349ZM14.5814 12.0372C14.3326 11.9116 13.1093 11.3116 12.8814 11.2279C12.6535 11.1442 12.4884 11.1023 12.3209 11.3535C12.1558 11.6023 11.6791 12.1628 11.5326 12.3279C11.3884 12.493 11.2419 12.514 10.993 12.3907C10.7442 12.2651 9.94186 12.0047 8.99302 11.1558C8.25349 10.4953 7.75349 9.6814 7.6093 9.43256C7.46512 9.18372 7.59302 9.04884 7.7186 8.92558C7.83023 8.81395 7.96744 8.63488 8.0907 8.4907C8.21395 8.34651 8.25581 8.24186 8.33954 8.07674C8.42326 7.91163 8.3814 7.76512 8.31861 7.64186C8.25581 7.51628 7.75814 6.29302 7.55116 5.79535C7.34884 5.3093 7.14419 5.37674 6.9907 5.36744C6.84651 5.36047 6.67907 5.35814 6.51395 5.35814C6.34884 5.35814 6.07907 5.42093 5.85116 5.66977C5.62326 5.9186 4.9814 6.52093 4.9814 7.74419C4.9814 8.96744 5.87209 10.1512 5.99767 10.3163C6.12093 10.4814 7.75116 12.9953 10.2488 14.0721C10.8419 14.3279 11.307 14.4814 11.6674 14.5953C12.2628 14.7837 12.807 14.7581 13.2349 14.693C13.714 14.6209 14.707 14.0907 14.914 13.5093C15.1209 12.9279 15.1209 12.4302 15.0581 12.3256C14.9953 12.2209 14.8302 12.1605 14.5814 12.0349V12.0372Z" fill="#FFCF27"/>
</g>
<defs>
<clipPath id="clip0_389_747">
<rect width="20" height="20.0907" fill="white"/>
</clipPath>
</defs>
</svg>
