<svg width="20" height="21" viewBox="0 0 20 21" fill="none" xmlns="http://www.w3.org/2000/svg">
<g clip-path="url(#clip0_448_3354)">
<path fill-rule="evenodd" clip-rule="evenodd" d="M17.086 3.37319C15.207 1.4918 12.7047 0.45459 10.0419 0.45459C4.55349 0.45459 0.0860465 4.91971 0.0837209 10.4081C0.0837209 12.1616 0.54186 13.8755 1.41395 15.3848L0 20.5453L5.27907 19.1616C6.73256 19.9546 8.37209 20.3732 10.0372 20.3732H10.0419C15.5302 20.3732 19.9977 15.9081 20 10.4174C20 7.75692 18.9651 5.25692 17.086 3.37552V3.37319ZM10.0419 18.6895H10.0395C8.55349 18.6895 7.09767 18.2895 5.82791 17.536L5.52558 17.3569L2.39302 18.1778L3.23023 15.1244L3.03256 14.8104C2.20465 13.4941 1.76744 11.9709 1.76744 10.4081C1.76744 5.84529 5.4814 2.13366 10.0488 2.13366C12.2605 2.13366 14.3372 2.99645 15.9 4.55924C17.4628 6.12436 18.3233 8.2011 18.3209 10.4127C18.3209 14.9755 14.607 18.6871 10.0442 18.6871L10.0419 18.6895ZM14.5814 12.4918C14.3326 12.3662 13.1093 11.7662 12.8814 11.6825C12.6535 11.5988 12.4884 11.5569 12.3209 11.8081C12.1558 12.0569 11.6791 12.6174 11.5326 12.7825C11.3884 12.9476 11.2419 12.9685 10.993 12.8453C10.7442 12.7197 9.94186 12.4592 8.99302 11.6104C8.25349 10.9499 7.75349 10.136 7.6093 9.88715C7.46512 9.63831 7.59302 9.50343 7.7186 9.38017C7.83023 9.26854 7.96744 9.08947 8.0907 8.94529C8.21395 8.8011 8.25581 8.69645 8.33954 8.53133C8.42326 8.36622 8.3814 8.21971 8.31861 8.09645C8.25581 7.97087 7.75814 6.74761 7.55116 6.24994C7.34884 5.76389 7.14419 5.83133 6.9907 5.82203C6.84651 5.81505 6.67907 5.81273 6.51395 5.81273C6.34884 5.81273 6.07907 5.87552 5.85116 6.12436C5.62326 6.37319 4.9814 6.97552 4.9814 8.19878C4.9814 9.42203 5.87209 10.6058 5.99767 10.7709C6.12093 10.936 7.75116 13.4499 10.2488 14.5267C10.8419 14.7825 11.307 14.936 11.6674 15.0499C12.2628 15.2383 12.807 15.2127 13.2349 15.1476C13.714 15.0755 14.707 14.5453 14.914 13.9639C15.1209 13.3825 15.1209 12.8848 15.0581 12.7802C14.9953 12.6755 14.8302 12.6151 14.5814 12.4895V12.4918Z" fill="black"/>
</g>
<defs>
<clipPath id="clip0_448_3354">
<rect width="20" height="20.0907" fill="white" transform="translate(0 0.45459)"/>
</clipPath>
</defs>
</svg>
